<?xml version="1.0" encoding="UTF-8"?>
<!-- Generator: visioncortex VTracer 0.6.5 -->
<svg version="1.1" xmlns="http://www.w3.org/2000/svg" width="16" height="16" viewBox="0 0 16 16">
  <g transform="scale(0.083333)">
    <path d="M0 0 C0.48 -0 0.48 -0 2.89 -0.01 C5.31 0.12 5.31 0.12 7.31 1.12 C6.65 3.77 5.99 6.41 5.31 9.12 C4.34 9.08 3.37 9.04 2.38 9 C-2.14 8.98 -6.34 10.02 -10.69 11.12 C-10.89 11.9 -11.1 12.67 -11.31 13.46 C-11.58 14.46 -11.85 15.47 -12.12 16.5 C-12.39 17.5 -12.66 18.5 -12.93 19.52 C-13.69 22.12 -13.69 22.12 -14.69 24.12 C-9.74 24.12 -4.79 24.12 0.31 24.12 C-0.02 26.77 -0.35 29.41 -0.69 32.12 C-5.64 32.12 -10.59 32.12 -15.69 32.12 C-15.65 33.3 -15.61 34.48 -15.56 35.69 C-15.59 45.53 -16.16 55.76 -21.69 64.12 C-26.27 68.48 -30.17 70.3 -36.44 70.75 C-36.93 70.79 -36.93 70.79 -39.42 70.98 C-40.17 71.03 -40.92 71.07 -41.69 71.12 C-41.69 68.49 -41.69 65.84 -41.69 63.12 C-41.31 63.01 -41.31 63.01 -39.39 62.43 C-38.89 62.26 -38.89 62.26 -36.38 61.44 C-35.39 61.12 -34.4 60.81 -33.39 60.49 C-29.92 58.74 -29.16 57.74 -27.69 54.12 C-26.92 50.38 -26.44 46.61 -26 42.81 C-25.94 42.3 -25.94 42.3 -25.61 39.7 C-25.29 37.18 -24.99 34.65 -24.69 32.12 C-28.65 32.12 -32.61 32.12 -36.69 32.12 C-36.36 29.48 -36.03 26.84 -35.69 24.12 C-31.73 24.12 -27.77 24.12 -23.69 24.12 C-23.44 22.45 -23.19 20.78 -22.94 19.06 C-21.51 11.39 -19.05 6.61 -12.57 2.07 C-8.55 0.05 -4.42 -0.01 0 0 Z " fill="#92A870" transform="translate(50.6875,66.875)"/>
    <path d="M0 0 C2.64 0 5.28 0 8 0 C8 1.98 8 3.96 8 6 C8.31 5.6 8.31 5.6 9.88 3.56 C12 1 12 1 14 0 C15.64 -0.1 17.29 -0.13 18.94 -0.12 C19.81 -0.13 20.69 -0.13 21.59 -0.13 C24 0 24 0 27 1 C31.68 8.03 29.55 15.41 28.12 23.25 C28.03 23.79 28.03 23.79 27.56 26.55 C26.18 34.47 26.18 34.47 25 38 C22.03 38 19.06 38 16 38 C16.8 28.25 18.43 18.65 20 9 C13.34 8.71 13.34 8.71 10.25 11.31 C4.95 18.74 4.3 29.22 3 38 C-0.3 38 -3.6 38 -7 38 C-6.17 32.91 -5.33 27.82 -4.49 22.73 C-4.21 21 -3.92 19.26 -3.64 17.53 C-3.23 15.04 -2.82 12.56 -2.41 10.07 C-2.28 9.29 -2.16 8.52 -2.03 7.72 C-1.11 2.23 -1.11 2.23 0 0 Z " fill="#5670B9" transform="translate(147,83)"/>
    <path d="M0 0 C2.34 0.27 2.34 0.27 4.06 0.62 C2.7 4.3 1.04 7.49 -1.04 10.82 C-1.66 11.83 -2.29 12.84 -2.94 13.89 C-3.62 14.98 -4.3 16.07 -5 17.19 C-6.44 19.51 -7.89 21.84 -9.33 24.17 C-9.7 24.77 -10.08 25.38 -10.46 26 C-14.77 32.95 -19.01 39.94 -23.25 46.94 C-23.98 48.14 -24.71 49.34 -25.44 50.55 C-30.87 59.51 -30.87 59.51 -32.5 62.45 C-32.97 63.17 -33.45 63.89 -33.94 64.62 C-36.42 65.11 -36.42 65.11 -39.12 64.94 C-40.03 64.89 -40.93 64.85 -41.86 64.8 C-42.54 64.74 -43.23 64.68 -43.94 64.62 C-40.93 58.03 -37.32 51.9 -33.44 45.79 C-30.49 41.13 -27.6 36.44 -24.75 31.72 C-24.38 31.11 -24.02 30.5 -23.64 29.87 C-22.14 27.39 -20.65 24.91 -19.16 22.43 C-16.79 18.48 -14.38 14.54 -11.94 10.62 C-11.62 10.12 -11.62 10.12 -10.03 7.57 C-9.44 6.66 -8.84 5.75 -8.23 4.81 C-7.71 4.01 -7.19 3.22 -6.66 2.39 C-4.46 0.13 -3.1 0.04 0 0 Z " fill="#566FB8" transform="translate(138.9375,63.375)"/>
    <path d="M0 0 C2.16 -0.29 2.16 -0.29 4.62 -0.19 C5.44 -0.16 6.26 -0.13 7.1 -0.11 C7.73 -0.07 8.35 -0.04 9 0 C8.34 4.19 6.09 7.55 3.94 11.12 C3.72 11.49 3.72 11.49 2.63 13.32 C-4.12 24.62 -11.07 35.81 -18 47 C-18.55 47.89 -19.11 48.79 -19.68 49.71 C-21.1 52 -22.52 54.28 -23.94 56.56 C-24.14 56.89 -24.14 56.89 -25.17 58.55 C-27.88 62.88 -27.88 62.88 -29 64 C-30.52 64.07 -32.04 64.08 -33.56 64.06 C-33.98 64.06 -33.98 64.06 -36.07 64.04 C-36.39 64.03 -36.39 64.03 -38 64 C-36.59 60.18 -34.81 56.84 -32.68 53.37 C-32.01 52.27 -31.34 51.16 -30.64 50.02 C-29.91 48.83 -29.17 47.63 -28.44 46.44 C-27.68 45.2 -26.93 43.97 -26.17 42.73 C-24.59 40.15 -23.01 37.56 -21.43 34.98 C-19 31 -16.58 27.02 -14.16 23.03 C-13.78 22.39 -13.39 21.75 -12.99 21.09 C-11.47 18.59 -9.96 16.09 -8.45 13.6 C-7.4 11.87 -6.36 10.15 -5.32 8.43 C-4.72 7.45 -4.13 6.48 -3.52 5.47 C-2.38 3.62 -1.2 1.8 0 0 Z " fill="#92A770" transform="translate(91,64)"/>
  </g>
</svg>

